<svg xmlns="http://www.w3.org/2000/svg" viewBox="-14.000 -14.000 511.099 116.000">
  <g transform="scale(0.2076328242277154) translate(-294.922 -106.224)">
    <path fill="#ffffff" d="M566.923828,112.813965 C611.591675,122.363792 649.641479,143.169525 681.096802,175.713287 C707.603760,203.137573 726.180908,235.157181 734.035461,272.671906 C742.305176,312.169434 736.752197,350.285095 719.333984,386.495300 C696.067566,434.862854 660.720703,471.216888 610.536316,491.665283 C572.852661,507.020020 533.486023,510.179413 493.265350,505.579651 C477.820923,503.813324 462.743866,500.556122 447.927917,496.009460 C444.803528,495.050629 442.110687,495.437134 439.238403,496.603302 C414.242279,506.752350 389.215363,516.825745 364.228821,526.998230 C359.480774,528.931274 354.719574,530.048828 349.634399,528.779602 C338.570160,526.017944 332.840668,516.090698 335.033447,503.480438 C339.362274,478.586121 343.399780,453.647247 347.077667,428.646118 C347.699463,424.419403 345.729431,422.014801 343.533142,419.363617 C327.691620,400.241333 316.144470,378.799957 309.317627,354.944305 C294.922394,304.641663 301.389221,256.877930 328.716431,212.426865 C361.508179,159.087021 409.419159,126.628036 470.362762,113.321075 C502.309174,106.345596 534.417664,106.223740 566.923828,112.813965 M437.443146,160.999329 C404.948029,176.439423 379.067352,199.272003 360.896973,230.410126 C343.598572,260.053986 335.928894,291.995209 340.444794,326.269012 C344.794983,359.285339 359.914673,386.843353 384.643829,409.034790 C388.880554,412.836761 390.296356,416.183411 388.634216,421.976349 C383.635437,439.398346 379.375153,457.032745 374.872253,474.595947 C374.320953,476.746246 373.480255,478.922485 374.119781,481.610138 C375.980591,481.045624 377.589478,480.683105 379.102234,480.079620 C398.744629,472.243896 418.394196,464.425323 437.986542,456.465973 C441.561859,455.013489 444.776154,454.624054 448.525665,456.093628 C480.433746,468.599243 513.436462,473.046509 547.489319,468.801453 C586.657043,463.918823 621.112183,448.607788 650.067261,421.562561 C696.809753,377.903229 711.557373,315.699341 689.092834,256.625916 C663.911377,190.408035 599.785950,146.353073 527.041138,143.453598 C496.177124,142.223404 466.393494,147.873795 437.443146,160.999329 z"/>
    <path fill="#ffffff" d="M537.038574,320.000000 C537.017395,344.984406 536.993591,369.468811 536.980103,393.953217 C536.978210,397.461914 536.831177,400.963440 535.722839,404.317627 C533.066467,412.356354 524.438171,417.975006 516.311401,417.043396 C506.627167,415.933197 499.437134,408.539398 498.859100,398.808594 C498.602692,394.492767 498.786621,390.150238 498.786652,385.819824 C498.787048,330.188477 498.773956,274.557129 498.806305,218.925812 C498.813049,207.339645 504.544678,200.034653 514.916565,198.089584 C524.641113,196.265900 534.740967,203.298538 536.274658,213.111084 C536.735168,216.057312 536.904236,219.075928 536.911316,222.062073 C536.987793,254.541306 537.005554,287.020660 537.038574,320.000000 z"/>
    <path fill="#ffffff" d="M590.418579,247.037170 C590.705933,249.267090 591.094055,251.081116 591.095703,252.895493 C591.128235,289.210602 591.124756,325.525757 591.105957,361.840912 C591.102234,368.985260 588.539062,374.870880 582.250671,378.699036 C570.829468,385.651947 556.006531,377.805664 555.636475,364.449097 C554.612305,327.478973 555.068115,290.497345 555.220703,253.521988 C555.279297,239.327438 564.839600,231.072815 577.133728,233.756866 C584.140564,235.286591 588.431335,239.772919 590.418579,247.037170 z"/>
    <path fill="#ffffff" d="M443.971924,327.000000 C443.979034,302.848022 443.942535,279.195923 444.011444,255.544128 C444.044800,244.098495 448.220825,237.444153 456.793030,234.699066 C468.545288,230.935654 480.156799,239.252121 480.278015,251.787170 C480.443939,268.941681 480.341003,286.098816 480.344879,303.254852 C480.349243,322.409637 480.361542,341.564453 480.336823,360.719208 C480.321289,372.758209 473.099609,380.688812 462.153259,380.771698 C452.067505,380.848053 444.356628,372.870453 444.074188,361.477295 C443.793579,350.157654 443.986420,338.826233 443.971924,327.000000 z"/>
    <path fill="#ffffff" d="M644.384766,295.003876 C644.380859,306.997711 644.457153,318.493134 644.358521,329.987091 C644.266663,340.684814 636.870789,348.233154 626.647217,348.291046 C616.334167,348.349457 608.712646,340.527130 608.679077,329.715027 C608.632507,314.721924 608.635071,299.728394 608.683472,284.735291 C608.718140,273.994995 616.491028,265.961823 626.628479,266.059052 C636.648438,266.155121 644.145264,273.952454 644.333496,284.509583 C644.392883,287.840607 644.372559,291.173035 644.384766,295.003876 z"/>
    <path fill="#ffffff" d="M396.142090,272.242798 C402.175568,266.297516 408.885712,264.376709 416.488556,267.618591 C424.276245,270.939331 427.489075,277.141052 427.387268,285.536804 C427.207520,300.363953 427.369049,315.194916 427.322540,330.024109 C427.289734,340.485962 419.688690,348.251892 409.567230,348.292389 C399.468109,348.332794 391.797180,340.613434 391.720917,330.036041 C391.612793,315.040863 391.717224,300.044281 391.673279,285.048492 C391.659546,280.363007 393.073242,276.220764 396.142090,272.242798 z"/>
  </g>
  <g transform="translate(108.779 61.824)">
    <path fill="#ffffff" d="M21.568 0.768L21.568 0.768Q17.088 0.768 13.152 -0.864Q9.216 -2.496 6.368 -5.504Q3.52 -8.512 2.112 -12.608L2.112 -12.608L10.24 -16.256Q12.032 -12.352 15.2 -10.112Q18.368 -7.872 22.208 -7.872L22.208 -7.872Q24.256 -7.872 25.728 -8.512Q27.2 -9.152 28.032 -10.272Q28.864 -11.392 28.864 -12.928L28.864 -12.928Q28.864 -14.592 27.84 -15.776Q26.816 -16.96 24.64 -17.664L24.64 -17.664L15.296 -20.736Q9.6 -22.592 6.72 -26.016Q3.84 -29.44 3.84 -34.24L3.84 -34.24Q3.84 -38.464 5.92 -41.664Q8 -44.864 11.744 -46.656Q15.488 -48.448 20.352 -48.448L20.352 -48.448Q24.64 -48.448 28.288 -46.976Q31.936 -45.504 34.592 -42.816Q37.248 -40.128 38.592 -36.352L38.592 -36.352L30.528 -32.704Q29.184 -36.032 26.496 -37.92Q23.808 -39.808 20.352 -39.808L20.352 -39.808Q18.368 -39.808 16.832 -39.168Q15.296 -38.528 14.464 -37.344Q13.632 -36.16 13.632 -34.624L13.632 -34.624Q13.632 -32.96 14.72 -31.712Q15.808 -30.464 17.984 -29.76L17.984 -29.76L27.136 -26.816Q32.896 -24.96 35.744 -21.632Q38.592 -18.304 38.592 -13.504L38.592 -13.504Q38.592 -9.344 36.416 -6.112Q34.24 -2.88 30.432 -1.056Q26.624 0.768 21.568 0.768M52.528 12.8L42.928 12.8L42.928 -34.944L51.888 -34.944L51.888 -28.288L51.056 -30.208Q52.784 -32.832 55.76 -34.272Q58.736 -35.712 62.576 -35.712L62.576 -35.712Q67.568 -35.712 71.6 -33.28Q75.632 -30.848 78 -26.72Q80.368 -22.592 80.368 -17.472L80.368 -17.472Q80.368 -12.416 78.032 -8.256Q75.696 -4.096 71.664 -1.664Q67.632 0.768 62.512 0.768L62.512 0.768Q58.928 0.768 55.888 -0.544Q52.848 -1.856 50.992 -4.416L50.992 -4.416L52.528 -6.4L52.528 12.8M61.36 -7.872L61.36 -7.872Q64.048 -7.872 66.096 -9.088Q68.144 -10.304 69.296 -12.48Q70.448 -14.656 70.448 -17.472L70.448 -17.472Q70.448 -20.288 69.296 -22.432Q68.144 -24.576 66.096 -25.824Q64.048 -27.072 61.36 -27.072L61.36 -27.072Q58.8 -27.072 56.784 -25.856Q54.768 -24.64 53.648 -22.464Q52.528 -20.288 52.528 -17.472L52.528 -17.472Q52.528 -14.656 53.648 -12.48Q54.768 -10.304 56.784 -9.088Q58.8 -7.872 61.36 -7.872M100.832 0.768L100.832 0.768Q95.264 0.768 91.168 -1.696Q87.072 -4.16 84.832 -8.32Q82.592 -12.48 82.592 -17.536L82.592 -17.536Q82.592 -22.784 84.928 -26.88Q87.264 -30.976 91.232 -33.344Q95.2 -35.712 100.192 -35.712L100.192 -35.712Q104.352 -35.712 107.552 -34.4Q110.752 -33.088 112.96 -30.72Q115.168 -28.352 116.32 -25.248Q117.472 -22.144 117.472 -18.496L117.472 -18.496Q117.472 -17.472 117.376 -16.48Q117.28 -15.488 117.024 -14.784L117.024 -14.784L90.848 -14.784L90.848 -21.824L111.584 -21.824L107.04 -18.496Q107.68 -21.248 106.976 -23.392Q106.272 -25.536 104.512 -26.784Q102.752 -28.032 100.192 -28.032L100.192 -28.032Q97.696 -28.032 95.904 -26.816Q94.112 -25.6 93.216 -23.232Q92.32 -20.864 92.512 -17.472L92.512 -17.472Q92.256 -14.528 93.216 -12.288Q94.176 -10.048 96.16 -8.8Q98.144 -7.552 100.96 -7.552L100.96 -7.552Q103.52 -7.552 105.344 -8.576Q107.168 -9.6 108.192 -11.392L108.192 -11.392L115.872 -7.744Q114.848 -5.184 112.64 -3.264Q110.432 -1.344 107.424 -0.288Q104.416 0.768 100.832 0.768M131.92 0.768L131.92 0.768Q128.144 0.768 125.392 -0.448Q122.64 -1.664 121.168 -3.936Q119.696 -6.208 119.696 -9.344L119.696 -9.344Q119.696 -12.288 121.04 -14.56Q122.384 -16.832 125.168 -18.368Q127.952 -19.904 132.112 -20.544L132.112 -20.544L142.8 -22.272L142.8 -15.232L133.84 -13.632Q131.792 -13.248 130.704 -12.32Q129.616 -11.392 129.616 -9.664L129.616 -9.664Q129.616 -8.064 130.832 -7.168Q132.048 -6.272 133.84 -6.272L133.84 -6.272Q136.208 -6.272 138 -7.296Q139.792 -8.32 140.784 -10.08Q141.776 -11.84 141.776 -13.952L141.776 -13.952L141.776 -23.04Q141.776 -25.024 140.208 -26.368Q138.64 -27.712 135.952 -27.712L135.952 -27.712Q133.392 -27.712 131.44 -26.304Q129.488 -24.896 128.592 -22.592L128.592 -22.592L120.912 -26.24Q121.936 -29.184 124.176 -31.296Q126.416 -33.408 129.552 -34.56Q132.688 -35.712 136.4 -35.712L136.4 -35.712Q140.816 -35.712 144.208 -34.112Q147.6 -32.512 149.488 -29.664Q151.376 -26.816 151.376 -23.04L151.376 -23.04L151.376 0L142.416 0L142.416 -5.632L144.592 -6.016Q143.056 -3.712 141.2 -2.208Q139.344 -0.704 137.04 0.032Q134.736 0.768 131.92 0.768M166.016 0L156.416 0L156.416 -48.448L166.016 -48.448L166.016 -17.408L162.432 -18.56L177.856 -34.944L189.696 -34.944L177.024 -20.864L189.632 0L178.752 0L168.192 -17.728L173.76 -19.136L163.072 -7.488L166.016 -13.056L166.016 0M208.624 0.768L208.624 0.768Q203.44 0.768 199.184 -1.6Q194.928 -3.968 192.4 -8.096Q189.872 -12.224 189.872 -17.472L189.872 -17.472Q189.872 -22.784 192.4 -26.88Q194.928 -30.976 199.184 -33.344Q203.44 -35.712 208.624 -35.712L208.624 -35.712Q213.808 -35.712 218.032 -33.344Q222.256 -30.976 224.784 -26.88Q227.312 -22.784 227.312 -17.472L227.312 -17.472Q227.312 -12.224 224.784 -8.096Q222.256 -3.968 218.032 -1.6Q213.808 0.768 208.624 0.768M208.624 -7.872L208.624 -7.872Q211.248 -7.872 213.2 -9.088Q215.152 -10.304 216.272 -12.48Q217.392 -14.656 217.392 -17.472L217.392 -17.472Q217.392 -20.288 216.272 -22.432Q215.152 -24.576 213.2 -25.824Q211.248 -27.072 208.624 -27.072L208.624 -27.072Q206 -27.072 204.016 -25.824Q202.032 -24.576 200.912 -22.432Q199.792 -20.288 199.792 -17.472L199.792 -17.472Q199.792 -14.656 200.912 -12.48Q202.032 -10.304 204.016 -9.088Q206 -7.872 208.624 -7.872M241.568 0L231.648 0L231.648 -47.68L264.288 -47.68L264.288 -39.04L241.568 -39.04L241.568 -26.944L261.088 -26.944L261.088 -18.304L241.568 -18.304L241.568 0M276.112 0L266.512 0L266.512 -48.448L276.112 -48.448L276.112 0M298.496 0.768L298.496 0.768Q293.312 0.768 289.056 -1.6Q284.8 -3.968 282.272 -8.096Q279.744 -12.224 279.744 -17.472L279.744 -17.472Q279.744 -22.784 282.272 -26.88Q284.8 -30.976 289.056 -33.344Q293.312 -35.712 298.496 -35.712L298.496 -35.712Q303.68 -35.712 307.904 -33.344Q312.128 -30.976 314.656 -26.88Q317.184 -22.784 317.184 -17.472L317.184 -17.472Q317.184 -12.224 314.656 -8.096Q312.128 -3.968 307.904 -1.6Q303.68 0.768 298.496 0.768M298.496 -7.872L298.496 -7.872Q301.12 -7.872 303.072 -9.088Q305.024 -10.304 306.144 -12.48Q307.264 -14.656 307.264 -17.472L307.264 -17.472Q307.264 -20.288 306.144 -22.432Q305.024 -24.576 303.072 -25.824Q301.12 -27.072 298.496 -27.072L298.496 -27.072Q295.872 -27.072 293.888 -25.824Q291.904 -24.576 290.784 -22.432Q289.664 -20.288 289.664 -17.472L289.664 -17.472Q289.664 -14.656 290.784 -12.48Q291.904 -10.304 293.888 -9.088Q295.872 -7.872 298.496 -7.872M337.712 0L329.392 0L317.36 -34.944L327.28 -34.944L335.728 -9.728L332.272 -9.792L341.68 -34.944L350 -34.944L359.344 -9.792L355.888 -9.728L364.336 -34.944L374.32 -34.944L362.224 0L353.904 0L344.176 -27.008L347.504 -27.008L337.712 0"/>
  </g>
</svg>
